<?xml version="1.0" standalone="no"?>
<!DOCTYPE svg PUBLIC "-//W3C//DTD SVG 20010904//EN"
 "http://www.w3.org/TR/2001/REC-SVG-20010904/DTD/svg10.dtd">
<svg version="1.0" xmlns="http://www.w3.org/2000/svg"
 width="256.000000pt" height="256.000000pt" viewBox="0 0 256.000000 256.000000"
 preserveAspectRatio="xMidYMid meet">
<metadata>
Created by potrace 1.11, written by Peter Selinger 2001-2013
</metadata>
<g transform="translate(0.000000,256.000000) scale(0.100000,-0.100000)"
fill="#000000" stroke="none">
<path d="M1235 2503 c-16 -14 -55 -46 -85 -72 -30 -25 -90 -80 -134 -121 -347
-327 -565 -597 -692 -855 -70 -143 -96 -242 -96 -365 1 -479 380 -921 872
-1017 63 -13 293 -11 352 3 370 83 662 333 796 680 57 148 78 336 52 464 -59
286 -329 666 -776 1091 -63 59 -250 219 -255 219 -2 0 -17 -12 -34 -27z m203
-530 c323 -320 477 -528 548 -738 24 -73 26 -89 21 -180 -25 -427 -341 -708
-778 -691 -325 13 -589 217 -672 521 -25 93 -33 237 -17 306 28 122 120 281
269 469 80 100 441 470 459 470 6 0 82 -71 170 -157z"/>
<path d="M1155 1665 c-261 -58 -456 -289 -464 -549 -5 -164 50 -297 174 -421
120 -122 249 -177 408 -177 207 0 408 126 509 318 120 229 78 484 -113 673
-135 134 -338 196 -514 156z m254 -160 c107 -33 198 -111 244 -209 37 -78 47
-128 42 -221 -7 -170 -91 -297 -242 -367 -55 -26 -81 -32 -162 -36 -105 -5
-184 14 -259 62 -117 74 -192 214 -192 361 0 253 195 442 445 430 39 -2 94
-11 124 -20z"/>
<path d="M1057 1103 c-32 -100 -44 -149 -36 -153 23 -15 53 -4 69 25 14 25 23
30 55 30 33 0 40 -4 49 -27 10 -27 17 -31 61 -31 25 -1 25 -6 -19 133 -58 179
-53 170 -95 170 l-37 0 -47 -147z m113 -35 c0 -5 -13 -8 -29 -8 l-28 0 15 46
15 46 13 -39 c8 -21 14 -41 14 -45z"/>
<path d="M1300 1098 l0 -154 63 2 c34 1 75 2 90 3 64 2 103 95 57 136 -17 16
-18 20 -5 38 22 31 18 62 -9 94 -23 26 -31 28 -110 32 l-86 3 0 -154z m139 87
c14 -8 14 -42 1 -50 -5 -3 -23 -8 -40 -10 -28 -3 -30 -1 -30 29 0 18 2 35 5
38 7 7 50 2 64 -7z m13 -121 c14 -9 9 -52 -8 -58 -9 -3 -29 -6 -45 -6 -26 0
-29 3 -29 33 0 19 3 37 7 40 6 7 60 0 75 -9z"/>
</g>
</svg>
